<?xml version="1.0" encoding="UTF-8"?>
<svg width="545px" height="545px" viewBox="0 0 545 545" version="1.1" xmlns="http://www.w3.org/2000/svg" xmlns:xlink="http://www.w3.org/1999/xlink">
    <!-- Generator: Sketch 53.2 (72643) - https://sketchapp.com -->
    <title>Split Block - mask</title>
    <desc>Created with Sketch.</desc>
    <g id="Split-Block---mask" stroke="none" stroke-width="1" fill="none" fill-rule="evenodd">
        <path d="M120,0 L425,0 C491.27417,-1.21743675e-14 545,53.72583 545,120 L545,425 C545,491.27417 491.27417,545 425,545 L120,545 C53.72583,545 8.11624501e-15,491.27417 0,425 L0,120 C-8.11624501e-15,53.72583 53.72583,1.21743675e-14 120,0 Z M255,159 L132,159 C127.581722,159 124,162.581722 124,167 L124,231 C124,235.418278 127.581722,239 132,239 L255,239 L255,159 Z M291,159 L291,239 L414,239 C418.418278,239 422,235.418278 422,231 L422,167 C422,162.581722 418.418278,159 414,159 L291,159 Z M255,251 L132,251 C127.581722,251 124,254.581722 124,259 L124,323 C124,327.418278 127.581722,331 132,331 L255,331 L255,251 Z M291,251 L291,331 L414,331 C418.418278,331 422,327.418278 422,323 L422,259 C422,254.581722 418.418278,251 414,251 L291,251 Z M132,343 C127.581722,343 124,346.581722 124,351 L124,415 C124,419.418278 127.581722,423 132,423 L414,423 C418.418278,423 422,419.418278 422,415 L422,351 C422,346.581722 418.418278,343 414,343 L132,343 Z M279,331 L279,125 L267,125 L267,331 L279,331 Z" id="Combined-Shape" fill="#000000"></path>
    </g>
</svg>