<?xml version="1.0" encoding="UTF-8"?>
<svg width="545px" height="545px" viewBox="0 0 545 545" version="1.1" xmlns="http://www.w3.org/2000/svg" xmlns:xlink="http://www.w3.org/1999/xlink">
    <!-- Generator: Sketch 53.2 (72643) - https://sketchapp.com -->
    <title>Split Block</title>
    <desc>Created with Sketch.</desc>
    <g id="Split-Block" stroke="none" stroke-width="1" fill="none" fill-rule="evenodd">
        <rect id="Rectangle" fill="#FFFFFF" x="0" y="0" width="545" height="545" rx="120"></rect>
        <path d="M120,-1 L425,-1 C491.27417,-1 545,52.72583 545,119 L545,424 C545,490.27417 491.27417,544 425,544 L120,544 C53.72583,544 8.11624501e-15,490.27417 0,424 L0,119 C-8.11624501e-15,52.72583 53.72583,-1 120,-1 Z M255,158 L132,158 C127.581722,158 124,161.581722 124,166 L124,230 C124,234.418278 127.581722,238 132,238 L255,238 L255,158 Z M291,158 L291,238 L414,238 C418.418278,238 422,234.418278 422,230 L422,166 C422,161.581722 418.418278,158 414,158 L291,158 Z M255,250 L132,250 C127.581722,250 124,253.581722 124,258 L124,322 C124,326.418278 127.581722,330 132,330 L255,330 L255,250 Z M291,250 L291,330 L414,330 C418.418278,330 422,326.418278 422,322 L422,258 C422,253.581722 418.418278,250 414,250 L291,250 Z M132,342 C127.581722,342 124,345.581722 124,350 L124,414 C124,418.418278 127.581722,422 132,422 L414,422 C418.418278,422 422,418.418278 422,414 L422,350 C422,345.581722 418.418278,342 414,342 L132,342 Z M279,330 L279,124 L267,124 L267,330 L279,330 Z" id="Combined-Shape" fill="#FF4342"></path>
    </g>
</svg>